# xmcd
# 
# Track frame offsets:
#   150
#   14869
#   29146
#   45784
#   58871
#   73956
#   92010
#   107796
#   125836
#   141260
#   151235
#   165039
#   181348
#   198769
#   215899
#   232824
#   247435
# 
# Disc length: 3464 seconds
# 
# Revision: 5
# Processed by: cddbd v1.5.2PL0 Copyright (c) Steve Scherf et al.
# Submitted via: Synapstar 1.0 
# 
DISCID=fb0d8611
DTITLE=Various Artist - 1998-03 Country Radio
DYEAR=1998
DGENRE=Country
TTITLE0=Mark Willis - I Do (Cherish You)
TTITLE1=Hal Ketchum - I Saw The Light
TTITLE2=Kevin Sharp - Love Is All That Really Matters
TTITLE3=Cledus T Judd - Wives Do It All The Time
TTITLE4=Jim Collins - My First, Last, One And Only
TTITLE5=Keith Harling - Papa Bear
TTITLE6=Lila McCann - Almost Over You
TTITLE7=Matt KIng - A Woman's Tears
TTITLE8=The Thompson Brothers Band - Back On The Farm
TTITLE9=Kacey Jones - I Hate Your Lousy, Rotten, Stinkin' Guts, But I'm Not Bitter
TTITLE10=Shane Stockton - What If I'm Right
TTITLE11=J.D. Meyers - Wishin' And Waitin'
TTITLE12=Perfect Stranger - The Truth Is Lyin' Next To You
TTITLE13=Chris Knight - Framed
TTITLE14=Gary Chapman and Wynonna - I'll Fly Away
TTITLE15=Jo_El Sonnier - Broken Hearted Side Of New Orleans
TTITLE16=Tim Wilson (featuring Jerry Reed) - I Married A Woman Who Talks Like Jerry Reed
EXTD=MediaType: Audio CD Producer: Unknown
EXTT0=
EXTT1=
EXTT2=
EXTT3=
EXTT4=
EXTT5=
EXTT6=
EXTT7=
EXTT8=
EXTT9=
EXTT10=
EXTT11=
EXTT12=
EXTT13=
EXTT14=
EXTT15=
EXTT16=
PLAYORDER=
